<svg id="Livello_1" data-name="Livello 1" xmlns="http://www.w3.org/2000/svg" viewBox="0 0 179.1 99.05"><defs><style>.cls-1{fill:#3aaa35;}</style></defs><path class="cls-1" d="M20.32,4.2c1.34.92,4.3,2.38,6.52,4.59Q59,40.64,90.88,72.71c6.46,6.46,9.82,6.46,16.24,0L170.4,9.47A35.2,35.2,0,0,1,174,6a9.1,9.1,0,0,1,12.16,1.09,8.75,8.75,0,0,1,.46,11.77,30.84,30.84,0,0,1-2.73,2.88q-38.31,38.32-76.63,76.64c-6.44,6.44-9.84,6.44-16.26,0Q52.67,60.14,14.38,21.79a19.48,19.48,0,0,1-3.92-5C7.58,10.76,11.84,4.22,20.32,4.2Z" transform="translate(-9.57 -4.2)"/></svg>